<?xml version="1.0" encoding="UTF-8"?> <svg xmlns="http://www.w3.org/2000/svg" clip-rule="evenodd" fill-rule="evenodd" height="512" stroke-linejoin="round" stroke-miterlimit="2" viewBox="0 0 24 24" width="512"><g id="Icon"><path d="m2.134 10.356c-.566-.313-.884-.861-.884-1.434 0-.574.318-1.122.884-1.434l8.314-4.595c.944-.521 2.16-.521 3.104 0l8.314 4.595c.566.312.884.86.884 1.434 0 .573-.318 1.121-.884 1.434l-8.314 4.594c-.944.522-2.16.522-3.104 0zm.725-1.313 8.314 4.594c.503.278 1.151.278 1.654 0l8.314-4.594c.055-.03.109-.066.109-.121 0-.056-.054-.091-.109-.122l-8.314-4.594c-.503-.278-1.151-.278-1.654 0l-8.314 4.594c-.055.031-.109.066-.109.122 0 .055.054.091.109.121z"></path><path d="m18.25 11.25c0-.414.336-.75.75-.75s.75.336.75.75v4.5c0 2.071-1.679 3.75-3.75 3.75h-8c-2.071 0-3.75-1.679-3.75-3.75v-4.5c0-.414.336-.75.75-.75s.75.336.75.75v4.5c0 1.243 1.007 2.25 2.25 2.25h8c1.243 0 2.25-1.007 2.25-2.25z"></path><path d="m11.47 9.78c-.293-.292-.293-.768 0-1.06.292-.293.768-.293 1.06 0l3.5 3.5c.141.14.22.331.22.53v8c0 .414-.336.75-.75.75s-.75-.336-.75-.75v-7.689z"></path></g></svg> 